{"title":"F.R.I.E.N.D.S. S9E08 - The One With Rachel's Other Sister","uid":7101314,"size":264640852,"categoryP":"video","categoryS":"tv_shows","magnet":"?xt=urn:btih:fafd1711f4ba160ba55c9cf52bcf779577459647&amp;dn=F.R.I.E.N.D.S.+S9E08+-+The+One+With+Rachel%27s+Other+Sister&amp;tr=udp%3A%2F%2Ftracker.openbittorrent.com%3A80&amp;tr=udp%3A%2F%2Fopen.demonii.com%3A1337&amp;tr=udp%3A%2F%2Ftracker.coppersurfer.tk%3A6969&amp;tr=udp%3A%2F%2Fexodus.desync.com%3A6969","seeders":0,"leechers":0,"uploader":"ya7hu","files":-1,"time":1331708218,"description":"Plot Summary:\n\nRachel's middle sister shows up on Thanksgiving Day.\n\n\nGeneral\n\nFormat                           : MPEG-PS\nFile size                        : 252 MiB\nDuration                         : 25mn 18s\nOverall bit rate                 : 1 395 Kbps\nWriting library                  : encoded by TMPGEnc (ver. 2.52.34.129)\n\nVideo\n\nFormat                           : MPEG Video\nBit rate                         : 1 150 Kbps\nWidth                            : 352 pixels\nHeight                           : 240 pixels\nDisplay aspect ratio             : 4:3\nFrame rate                       : 29.970 fps\nBits/(Pixel*Frame)               : 0.454\nStream size                      : 207 MiB (82%)\n\nAudio\nFormat profile                   : Layer 2\nDuration                         : 25mn 18s\nChannel(s)                       : 2 channels\nSampling rate                    : 44.1 KHz\nStream size                      : 40.5 MiB (16%)\n","torrent":{"xt":"urn:btih:fafd1711f4ba160ba55c9cf52bcf779577459647","amp;dn":"F.R.I.E.N.D.S.+S9E08+-+The+One+With+Rachel%27s+Other+Sister","amp;tr":["udp%3A%2F%2Ftracker.openbittorrent.com%3A80","udp%3A%2F%2Fopen.demonii.com%3A1337","udp%3A%2F%2Ftracker.coppersurfer.tk%3A6969","udp%3A%2F%2Fexodus.desync.com%3A6969"],"infoHash":"fafd1711f4ba160ba55c9cf52bcf779577459647","infoHashBuffer":{"type":"Buffer","data":[250,253,23,17,244,186,22,11,165,92,156,245,43,207,119,149,119,69,150,71]},"announce":[],"urlList":[]}}